<?xml version="1.0" encoding="UTF-8" standalone="no"?>
<!-- Created with Inkscape (http://www.inkscape.org/) -->

<svg
   width="39.708431mm"
   height="39.749985mm"
   viewBox="0 0 39.708431 39.749985"
   version="1.1"
   id="svg1"
   xml:space="preserve"
   sodipodi:docname="pal.svg"
   inkscape:version="1.4 (86a8ad7, 2024-10-11)"
   xmlns:inkscape="http://www.inkscape.org/namespaces/inkscape"
   xmlns:sodipodi="http://sodipodi.sourceforge.net/DTD/sodipodi-0.dtd"
   xmlns="http://www.w3.org/2000/svg"
   xmlns:svg="http://www.w3.org/2000/svg"><sodipodi:namedview
     id="namedview1"
     pagecolor="#ffffff"
     bordercolor="#999999"
     borderopacity="1"
     inkscape:showpageshadow="2"
     inkscape:pageopacity="0"
     inkscape:pagecheckerboard="0"
     inkscape:deskcolor="#d1d1d1"
     inkscape:document-units="mm"
     inkscape:zoom="1.254321"
     inkscape:cx="57.401573"
     inkscape:cy="168.2185"
     inkscape:window-width="1920"
     inkscape:window-height="974"
     inkscape:window-x="-11"
     inkscape:window-y="-11"
     inkscape:window-maximized="1"
     inkscape:current-layer="svg1" /><defs
     id="defs1"><clipPath
       clipPathUnits="userSpaceOnUse"
       id="clipPath1"><rect
         style="fill:#008000;stroke:#000000;stroke-width:0.132292;stroke-linecap:square;stroke-linejoin:round;stroke-miterlimit:3.1"
         id="rect2"
         width="128.25"
         height="187.73438"
         x="75.9375"
         y="75.9375" /></clipPath><clipPath
       clipPathUnits="userSpaceOnUse"
       id="clipPath98"><rect
         style="fill:#dfdac5;fill-opacity:1;stroke:#000000;stroke-width:0.132292;stroke-linecap:square;stroke-linejoin:round;stroke-miterlimit:3.1"
         id="rect99"
         width="19.390194"
         height="184.65431"
         x="131.55501"
         y="95.16111" /></clipPath><clipPath
       clipPathUnits="userSpaceOnUse"
       id="clipPath178"><rect
         style="fill:#1d1b18;fill-opacity:1;stroke:#000000;stroke-width:0.132292;stroke-linecap:square;stroke-linejoin:round;stroke-miterlimit:3.1"
         id="rect179"
         width="30.374996"
         height="182.25"
         x="48.09375"
         y="116.4375" /></clipPath><clipPath
       clipPathUnits="userSpaceOnUse"
       id="clipPath2"><rect
         style="fill:#312e2f;fill-opacity:1;stroke:#000000;stroke-width:0.132292;stroke-linecap:square;stroke-linejoin:round;stroke-miterlimit:3.1"
         id="rect3"
         width="14.343749"
         height="186.04688"
         x="19.828125"
         y="82.265625" /></clipPath><clipPath
       clipPathUnits="userSpaceOnUse"
       id="clipPath4"><rect
         style="fill:#909fa3;fill-opacity:1;stroke:#000000;stroke-width:0.132292;stroke-linecap:square;stroke-linejoin:round;stroke-miterlimit:3.1"
         id="rect5"
         width="22.074989"
         height="189.12895"
         x="120.51751"
         y="102.61887" /></clipPath><clipPath
       clipPathUnits="userSpaceOnUse"
       id="clipPath6"><rect
         style="fill:#4f4d5f;fill-opacity:1;stroke:#000000;stroke-width:0.132292;stroke-linecap:square;stroke-linejoin:round;stroke-miterlimit:3.1"
         id="rect7"
         width="30.374996"
         height="181.82812"
         x="124.45312"
         y="117.28125" /></clipPath><clipPath
       clipPathUnits="userSpaceOnUse"
       id="clipPath3"><rect
         style="fill:none;stroke:#000000;stroke-width:0.132292;stroke-linecap:square;stroke-linejoin:round;stroke-miterlimit:3.1"
         id="rect4"
         width="18.793571"
         height="181.37289"
         x="-25.288322"
         y="-55.441376" /></clipPath><clipPath
       clipPathUnits="userSpaceOnUse"
       id="clipPath7"><rect
         style="fill:#e4dfc9;fill-opacity:1;stroke:#000000;stroke-width:0.132292;stroke-linecap:square;stroke-linejoin:round;stroke-miterlimit:3.1"
         id="rect8"
         width="19.091883"
         height="181.37289"
         x="-30.657917"
         y="-62.60083" /></clipPath><clipPath
       clipPathUnits="userSpaceOnUse"
       id="clipPath9"><rect
         style="fill:#c7c776;fill-opacity:1;stroke:#000000;stroke-width:0.132292;stroke-linecap:square;stroke-linejoin:round;stroke-miterlimit:3.1"
         id="rect10"
         width="22.074989"
         height="186.14586"
         x="7.1594558"
         y="-50.116192" /></clipPath><clipPath
       clipPathUnits="userSpaceOnUse"
       id="clipPath11"><rect
         style="fill:#c39c3e;fill-opacity:1;stroke:#000000;stroke-width:0.132292;stroke-linecap:square;stroke-linejoin:round;stroke-miterlimit:3.1"
         id="rect12"
         width="23.566542"
         height="179.28471"
         x="20.881746"
         y="-48.028015" /></clipPath><clipPath
       clipPathUnits="userSpaceOnUse"
       id="clipPath13"><rect
         style="fill:#947539;fill-opacity:1;stroke:#000000;stroke-width:0.132292;stroke-linecap:square;stroke-linejoin:round;stroke-miterlimit:3.1"
         id="rect14"
         width="29.953123"
         height="181.40623"
         x="-19.40625"
         y="-54.84375" /></clipPath><clipPath
       clipPathUnits="userSpaceOnUse"
       id="clipPath15"><rect
         style="fill:#a76e49;fill-opacity:1;stroke:#000000;stroke-width:0.132292;stroke-linecap:square;stroke-linejoin:round;stroke-miterlimit:3.1"
         id="rect16"
         width="17.71875"
         height="179.29688"
         x="23.624998"
         y="-58.640621" /></clipPath><clipPath
       clipPathUnits="userSpaceOnUse"
       id="clipPath17"><rect
         style="fill:#9f433b;fill-opacity:1;stroke:#000000;stroke-width:0.132292;stroke-linecap:square;stroke-linejoin:round;stroke-miterlimit:3.1"
         id="rect18"
         width="17.302019"
         height="186.14586"
         x="29.831066"
         y="-51.309433" /></clipPath><clipPath
       clipPathUnits="userSpaceOnUse"
       id="clipPath19"><rect
         style="fill:#403638;fill-opacity:1;stroke:#000000;stroke-width:0.132292;stroke-linecap:square;stroke-linejoin:round;stroke-miterlimit:3.1"
         id="rect20"
         width="17.71875"
         height="178.875"
         x="36.703125"
         y="-43.875" /></clipPath></defs><g
     inkscape:label="Layer 1"
     inkscape:groupmode="layer"
     id="layer1"
     transform="translate(-124.33447,-166.20557)" /><g
     inkscape:label="GridCartesian:X8:Y8"
     transform="translate(-33.777189,5.3251847)"
     id="g62"><g
       inkscape:label="MajorXGridlines"
       id="g54" /><g
       inkscape:label="MajorYGridlines"
       id="g61" /><path
       style="fill:#1d1b18;fill-opacity:1;stroke:#000000;stroke-width:0.0996555;stroke-linecap:square;stroke-linejoin:round;stroke-miterlimit:3.1"
       d="m 469.97539,769.44021 v -8.86934 h 8.86935 8.86934 v 8.86934 8.86934 h -8.86934 -8.86935 z"
       id="path114"
       transform="matrix(0.26458333,0,0,0.26458333,-90.557281,-171.53075)" /><path
       style="fill:#5a554a;fill-opacity:1;stroke:#000000;stroke-width:0.0996555;stroke-linecap:square;stroke-linejoin:round;stroke-miterlimit:3.1"
       d="m 469.97539,750.50566 v -8.86934 h 8.86935 8.86934 v 8.86934 8.86934 h -8.86934 -8.86935 z"
       id="path115"
       transform="matrix(0.26458333,0,0,0.26458333,-90.557281,-171.53075)" /><path
       style="fill:#a0a29e;fill-opacity:1;stroke:#000000;stroke-width:0.0996555;stroke-linecap:square;stroke-linejoin:round;stroke-miterlimit:3.1"
       d="m 469.97539,731.67077 v -8.76969 h 8.86935 8.86934 v 8.76969 8.76968 h -8.86934 -8.86935 z"
       id="path116"
       transform="matrix(0.26458333,0,0,0.26458333,-90.557281,-171.53075)" /><path
       style="fill:#b4ad8f;fill-opacity:1;stroke:#000000;stroke-width:0.0996555;stroke-linecap:square;stroke-linejoin:round;stroke-miterlimit:3.1"
       d="m 469.97539,712.83588 v -8.86934 h 8.86935 8.86934 v 8.86934 8.86934 h -8.86934 -8.86935 z"
       id="path117"
       transform="matrix(0.26458333,0,0,0.26458333,-90.557281,-171.53075)" /><path
       style="fill:#e4dfc9;fill-opacity:1;stroke:#000000;stroke-width:0.0996555;stroke-linecap:square;stroke-linejoin:round;stroke-miterlimit:3.1"
       d="m 469.97539,693.90133 v -8.86934 h 8.86935 8.86934 v 8.86934 8.86934 h -8.86934 -8.86935 z"
       id="path118"
       transform="matrix(0.26458333,0,0,0.26458333,-90.557281,-171.53075)" /><path
       style="fill:#a4944f;fill-opacity:1;stroke:#000000;stroke-width:0.0996555;stroke-linecap:square;stroke-linejoin:round;stroke-miterlimit:3.1"
       d="m 469.97539,674.96678 v -8.86934 h 8.86935 8.86934 v 8.86934 8.86934 h -8.86934 -8.86935 z"
       id="path119"
       transform="matrix(0.26458333,0,0,0.26458333,-90.557281,-171.53075)" /><path
       style="fill:#c9c5b4;fill-opacity:1;stroke:#000000;stroke-width:0.0996555;stroke-linecap:square;stroke-linejoin:round;stroke-miterlimit:3.1"
       d="m 469.97539,637.09769 v -8.86934 h 8.86935 8.86934 v 8.86934 8.86934 h -8.86934 -8.86935 z"
       id="path120"
       transform="matrix(0.26458333,0,0,0.26458333,-90.557281,-171.53075)" /><path
       style="fill:#e5db9a;fill-opacity:1;stroke:#000000;stroke-width:0.0996555;stroke-linecap:square;stroke-linejoin:round;stroke-miterlimit:3.1"
       d="m 469.97539,656.03224 v -8.86935 h 8.86935 8.86934 v 8.86935 8.86934 h -8.86934 -8.86935 z"
       id="path121"
       transform="matrix(0.26458333,0,0,0.26458333,-90.557281,-171.53075)" /><path
       style="fill:#444245;fill-opacity:1;stroke:#000000;stroke-width:0.0996555;stroke-linecap:square;stroke-linejoin:round;stroke-miterlimit:3.1"
       d="m 488.90994,656.03224 v -8.86935 h 8.86934 8.86934 v 8.86935 8.86934 h -8.86934 -8.86934 z"
       id="path122"
       transform="matrix(0.26458333,0,0,0.26458333,-90.557281,-171.53075)" /><path
       style="fill:#575454;fill-opacity:1;stroke:#000000;stroke-width:0.0996555;stroke-linecap:square;stroke-linejoin:round;stroke-miterlimit:3.1"
       d="m 488.90994,637.09769 v -8.86934 h 8.86934 8.86934 v 8.86934 8.86934 h -8.86934 -8.86934 z"
       id="path123"
       transform="matrix(0.26458333,0,0,0.26458333,-90.557281,-171.53075)" /><path
       style="fill:#454246;fill-opacity:1;stroke:#000000;stroke-width:0.0996555;stroke-linecap:square;stroke-linejoin:round;stroke-miterlimit:3.1"
       d="m 488.90994,674.96678 v -8.86934 h 8.86934 8.86934 v 8.86934 8.86934 h -8.86934 -8.86934 z"
       id="path124"
       transform="matrix(0.26458333,0,0,0.26458333,-90.557281,-171.53075)" /><path
       style="fill:#c7bf5a;fill-opacity:1;stroke:#000000;stroke-width:0.0996555;stroke-linecap:square;stroke-linejoin:round;stroke-miterlimit:3.1"
       d="m 488.90994,693.90133 v -8.86934 h 8.86934 8.86934 v 8.86934 8.86934 h -8.86934 -8.86934 z"
       id="path125"
       transform="matrix(0.26458333,0,0,0.26458333,-90.557281,-171.53075)" /><path
       style="fill:#dece60;fill-opacity:1;stroke:#000000;stroke-width:0.0996555;stroke-linecap:square;stroke-linejoin:round;stroke-miterlimit:3.1"
       d="m 488.90994,712.83588 v -8.86934 h 8.86934 8.86934 v 8.86934 8.86934 h -8.86934 -8.86934 z"
       id="path126"
       transform="matrix(0.26458333,0,0,0.26458333,-90.557281,-171.53075)" /><path
       style="fill:#2c292b;fill-opacity:1;stroke:#000000;stroke-width:0.0996555;stroke-linecap:square;stroke-linejoin:round;stroke-miterlimit:3.1"
       d="m 488.90994,731.67077 v -8.76969 h 8.86934 8.86934 v 8.76969 8.76968 h -8.86934 -8.86934 z"
       id="path127"
       transform="matrix(0.26458333,0,0,0.26458333,-90.557281,-171.53075)" /><path
       style="fill:#312e2f;fill-opacity:1;stroke:#000000;stroke-width:0.0996555;stroke-linecap:square;stroke-linejoin:round;stroke-miterlimit:3.1"
       d="m 488.90994,750.50566 v -8.86934 h 8.86934 8.86934 v 8.86934 8.86934 h -8.86934 -8.86934 z"
       id="path128"
       transform="matrix(0.26458333,0,0,0.26458333,-90.557281,-171.53075)" /><path
       style="fill:#2c2742;fill-opacity:1;stroke:#000000;stroke-width:0.0996555;stroke-linecap:square;stroke-linejoin:round;stroke-miterlimit:3.1"
       d="m 488.90994,769.44021 v -8.86934 h 8.86934 8.86934 v 8.86934 8.86934 h -8.86934 -8.86934 z"
       id="path129"
       transform="matrix(0.26458333,0,0,0.26458333,-90.557281,-171.53075)" /><path
       style="fill:#1a1944;fill-opacity:1;stroke:#000000;stroke-width:0.0996555;stroke-linecap:square;stroke-linejoin:round;stroke-miterlimit:3.1"
       d="m 507.84449,769.44021 v -8.86934 h 8.76968 8.76969 v 8.86934 8.86934 h -8.76969 -8.76968 z"
       id="path130"
       transform="matrix(0.26458333,0,0,0.26458333,-90.557281,-171.53075)" /><path
       style="fill:#36401f;fill-opacity:1;stroke:#000000;stroke-width:0.0996555;stroke-linecap:square;stroke-linejoin:round;stroke-miterlimit:3.1"
       d="m 507.84449,750.50566 v -8.86934 h 8.76968 8.76969 v 8.86934 8.86934 h -8.76969 -8.76968 z"
       id="path131"
       transform="matrix(0.26458333,0,0,0.26458333,-90.557281,-171.53075)" /><path
       style="fill:#3d3d67;fill-opacity:1;stroke:#000000;stroke-width:0.0996555;stroke-linecap:square;stroke-linejoin:round;stroke-miterlimit:3.1"
       d="m 507.84449,731.67077 v -8.76969 h 8.76968 8.76969 v 8.76969 8.76968 h -8.76969 -8.76968 z"
       id="path132"
       transform="matrix(0.26458333,0,0,0.26458333,-90.557281,-171.53075)" /><path
       style="fill:#596488;fill-opacity:1;stroke:#000000;stroke-width:0.0996555;stroke-linecap:square;stroke-linejoin:round;stroke-miterlimit:3.1"
       d="m 507.84449,712.83588 v -8.86934 h 8.76968 8.76969 v 8.86934 8.86934 h -8.76969 -8.76968 z"
       id="path133"
       transform="matrix(0.26458333,0,0,0.26458333,-90.557281,-171.53075)" /><path
       style="fill:#606eb1;fill-opacity:1;stroke:#000000;stroke-width:0.0996555;stroke-linecap:square;stroke-linejoin:round;stroke-miterlimit:3.1"
       d="m 507.84449,693.90133 v -8.86934 h 8.76968 8.76969 v 8.86934 8.86934 h -8.76969 -8.76968 z"
       id="path134"
       transform="matrix(0.26458333,0,0,0.26458333,-90.557281,-171.53075)" /><path
       style="fill:#ecd9a9;fill-opacity:1;stroke:#000000;stroke-width:0.0996555;stroke-linecap:square;stroke-linejoin:round;stroke-miterlimit:3.1"
       d="m 507.84449,674.96678 v -8.86934 h 8.76968 8.76969 v 8.86934 8.86934 h -8.76969 -8.76968 z"
       id="path135"
       transform="matrix(0.26458333,0,0,0.26458333,-90.557281,-171.53075)" /><path
       style="fill:#8293b4;fill-opacity:1;stroke:#000000;stroke-width:0.0996555;stroke-linecap:square;stroke-linejoin:round;stroke-miterlimit:3.1"
       d="m 507.84449,656.03224 v -8.86935 h 8.76968 8.76969 v 8.86935 8.86934 h -8.76969 -8.76968 z"
       id="path136"
       transform="matrix(0.26458333,0,0,0.26458333,-90.557281,-171.53075)" /><path
       style="fill:#86b4b4;fill-opacity:1;stroke:#000000;stroke-width:0.0996555;stroke-linecap:square;stroke-linejoin:round;stroke-miterlimit:3.1"
       d="m 507.84449,637.09769 v -8.86934 h 8.76968 8.76969 v 8.86934 8.86934 h -8.76969 -8.76968 z"
       id="path137"
       transform="matrix(0.26458333,0,0,0.26458333,-90.557281,-171.53075)" /><path
       style="fill:#7e989e;fill-opacity:1;stroke:#000000;stroke-width:0.0996555;stroke-linecap:square;stroke-linejoin:round;stroke-miterlimit:3.1"
       d="m 526.57973,637.09769 v -8.86934 h 8.86934 8.86934 v 8.86934 8.86934 h -8.86934 -8.86934 z"
       id="path138"
       transform="matrix(0.26458333,0,0,0.26458333,-90.557281,-171.53075)" /><path
       style="fill:#909fa3;fill-opacity:1;stroke:#000000;stroke-width:0.0996555;stroke-linecap:square;stroke-linejoin:round;stroke-miterlimit:3.1"
       d="m 526.57973,656.03224 v -8.86935 h 8.86934 8.86934 v 8.86935 8.86934 h -8.86934 -8.86934 z"
       id="path139"
       transform="matrix(0.26458333,0,0,0.26458333,-90.557281,-171.53075)" /><path
       style="fill:#d0d4d1;fill-opacity:1;stroke:#000000;stroke-width:0.0996555;stroke-linecap:square;stroke-linejoin:round;stroke-miterlimit:3.1"
       d="m 526.57973,674.96678 v -8.86934 h 8.86934 8.86934 v 8.86934 8.86934 h -8.86934 -8.86934 z"
       id="path140"
       transform="matrix(0.26458333,0,0,0.26458333,-90.557281,-171.53075)" /><path
       style="fill:#9a6c37;fill-opacity:1;stroke:#000000;stroke-width:0.0996555;stroke-linecap:square;stroke-linejoin:round;stroke-miterlimit:3.1"
       d="m 526.57973,693.90133 v -8.86934 h 8.86934 8.86934 v 8.86934 8.86934 h -8.86934 -8.86934 z"
       id="path141"
       transform="matrix(0.26458333,0,0,0.26458333,-90.557281,-171.53075)" /><path
       style="fill:#c39c3e;fill-opacity:1;stroke:#000000;stroke-width:0.0996555;stroke-linecap:square;stroke-linejoin:round;stroke-miterlimit:3.1"
       d="m 526.57973,712.83588 v -8.86934 h 8.86934 8.86934 v 8.86934 8.86934 h -8.86934 -8.86934 z"
       id="path142"
       transform="matrix(0.26458333,0,0,0.26458333,-90.557281,-171.53075)" /><path
       style="fill:#c7c776;fill-opacity:1;stroke:#000000;stroke-width:0.0996555;stroke-linecap:square;stroke-linejoin:round;stroke-miterlimit:3.1"
       d="m 526.57973,731.67077 v -8.76969 h 8.86934 8.86934 v 8.76969 8.76968 h -8.86934 -8.86934 z"
       id="path143"
       transform="matrix(0.26458333,0,0,0.26458333,-90.557281,-171.53075)" /><path
       style="fill:#6c755e;fill-opacity:1;stroke:#000000;stroke-width:0.0996555;stroke-linecap:square;stroke-linejoin:round;stroke-miterlimit:3.1"
       d="m 526.57973,750.50566 v -8.86934 h 8.86934 8.86934 v 8.86934 8.86934 h -8.86934 -8.86934 z"
       id="path144"
       transform="matrix(0.26458333,0,0,0.26458333,-90.557281,-171.53075)" /><path
       style="fill:#bebac0;fill-opacity:1;stroke:#000000;stroke-width:0.0996555;stroke-linecap:square;stroke-linejoin:round;stroke-miterlimit:3.1"
       d="m 526.57973,769.44021 v -8.86934 h 8.86934 8.86934 v 8.86934 8.86934 h -8.86934 -8.86934 z"
       id="path145"
       transform="matrix(0.26458333,0,0,0.26458333,-90.557281,-171.53075)" /><path
       style="fill:#77747f;fill-opacity:1;stroke:#000000;stroke-width:0.0996555;stroke-linecap:square;stroke-linejoin:round;stroke-miterlimit:3.1"
       d="m 545.51427,769.44021 v -8.86934 h 8.86934 8.86934 v 8.86934 8.86934 h -8.86934 -8.86934 z"
       id="path146"
       transform="matrix(0.26458333,0,0,0.26458333,-90.557281,-171.53075)" /><path
       style="fill:#4f4d5f;fill-opacity:1;stroke:#000000;stroke-width:0.0996555;stroke-linecap:square;stroke-linejoin:round;stroke-miterlimit:3.1"
       d="m 545.51427,750.50566 v -8.86934 h 8.86934 8.86934 v 8.86934 8.86934 h -8.86934 -8.86934 z"
       id="path147"
       transform="matrix(0.26458333,0,0,0.26458333,-90.557281,-171.53075)" /><path
       style="fill:#505352;fill-opacity:1;stroke:#000000;stroke-width:0.0996555;stroke-linecap:square;stroke-linejoin:round;stroke-miterlimit:3.1"
       d="m 545.51427,731.67077 v -8.76969 h 8.86934 8.86934 v 8.76969 8.76968 h -8.86934 -8.86934 z"
       id="path148"
       transform="matrix(0.26458333,0,0,0.26458333,-90.557281,-171.53075)" /><path
       style="fill:#9b9e88;fill-opacity:1;stroke:#000000;stroke-width:0.0996555;stroke-linecap:square;stroke-linejoin:round;stroke-miterlimit:3.1"
       d="m 545.51427,712.83588 v -8.86934 h 8.86934 8.86934 v 8.86934 8.86934 h -8.86934 -8.86934 z"
       id="path149"
       transform="matrix(0.26458333,0,0,0.26458333,-90.557281,-171.53075)" /><path
       style="fill:#947539;fill-opacity:1;stroke:#000000;stroke-width:0.0996555;stroke-linecap:square;stroke-linejoin:round;stroke-miterlimit:3.1"
       d="m 545.51427,693.90133 v -8.86934 h 8.86934 8.86934 v 8.86934 8.86934 h -8.86934 -8.86934 z"
       id="path150"
       transform="matrix(0.26458333,0,0,0.26458333,-90.557281,-171.53075)" /><path
       style="fill:#767d35;fill-opacity:1;stroke:#000000;stroke-width:0.0996555;stroke-linecap:square;stroke-linejoin:round;stroke-miterlimit:3.1"
       d="m 545.51427,656.03224 v -8.86935 h 8.86934 8.86934 v 8.86935 8.86934 h -8.86934 -8.86934 z"
       id="path151"
       transform="matrix(0.26458333,0,0,0.26458333,-90.557281,-171.53075)" /><path
       style="fill:#7f4631;fill-opacity:1;stroke:#000000;stroke-width:0.0996555;stroke-linecap:square;stroke-linejoin:round;stroke-miterlimit:3.1"
       d="m 545.51427,674.96678 v -8.86934 h 8.86934 8.86934 v 8.86934 8.86934 h -8.86934 -8.86934 z"
       id="path152"
       transform="matrix(0.26458333,0,0,0.26458333,-90.557281,-171.53075)" /><path
       style="fill:#a76e49;fill-opacity:1;stroke:#000000;stroke-width:0.0996555;stroke-linecap:square;stroke-linejoin:round;stroke-miterlimit:3.1"
       d="m 545.51427,637.09769 v -8.86934 h 8.86934 8.86934 v 8.86934 8.86934 h -8.86934 -8.86934 z"
       id="path153"
       transform="matrix(0.26458333,0,0,0.26458333,-90.557281,-171.53075)" /><path
       style="fill:#7cae8c;fill-opacity:1;stroke:#000000;stroke-width:0.0996555;stroke-linecap:square;stroke-linejoin:round;stroke-miterlimit:3.1"
       d="m 564.44882,637.09769 v -8.86934 h 8.86934 8.86934 v 8.86934 8.86934 h -8.86934 -8.86934 z"
       id="path154"
       transform="matrix(0.26458333,0,0,0.26458333,-90.557281,-171.53075)" /><path
       style="fill:#98b276;fill-opacity:1;stroke:#000000;stroke-width:0.0996555;stroke-linecap:square;stroke-linejoin:round;stroke-miterlimit:3.1"
       d="m 564.44882,656.03224 v -8.86935 h 8.86934 8.86934 v 8.86935 8.86934 h -8.86934 -8.86934 z"
       id="path155"
       transform="matrix(0.26458333,0,0,0.26458333,-90.557281,-171.53075)" /><path
       style="fill:#ddc19c;fill-opacity:1;stroke:#000000;stroke-width:0.0996555;stroke-linecap:square;stroke-linejoin:round;stroke-miterlimit:3.1"
       d="m 564.44882,674.96678 v -8.86934 h 8.86934 8.86934 v 8.86934 8.86934 h -8.86934 -8.86934 z"
       id="path156"
       transform="matrix(0.26458333,0,0,0.26458333,-90.557281,-171.53075)" /><path
       style="fill:#e6d9c2;fill-opacity:1;stroke:#000000;stroke-width:0.0996555;stroke-linecap:square;stroke-linejoin:round;stroke-miterlimit:3.1"
       d="m 564.44882,693.90133 v -8.86934 h 8.86934 8.86934 v 8.86934 8.86934 h -8.86934 -8.86934 z"
       id="path157"
       transform="matrix(0.26458333,0,0,0.26458333,-90.557281,-171.53075)" /><path
       style="fill:#e2cbbb;fill-opacity:1;stroke:#000000;stroke-width:0.0704671;stroke-linecap:square;stroke-linejoin:round;stroke-miterlimit:3.1"
       d="m 564.44138,712.70413 v -8.87885 h 8.87885 8.87885 v 8.87885 8.87885 h -8.87885 -8.87885 z"
       id="path159"
       transform="matrix(0.26458333,0,0,0.26458333,-90.557281,-171.53075)" /><path
       style="fill:#b36d4f;fill-opacity:1;stroke:#000000;stroke-width:0.0704671;stroke-linecap:square;stroke-linejoin:round;stroke-miterlimit:3.1"
       d="m 564.44138,731.73025 v -8.87886 h 8.87885 8.87885 v 8.87886 8.87885 h -8.87885 -8.87885 z"
       id="path160"
       transform="matrix(0.26458333,0,0,0.26458333,-90.557281,-171.53075)" /><path
       style="fill:#b05267;fill-opacity:1;stroke:#000000;stroke-width:0.0704671;stroke-linecap:square;stroke-linejoin:round;stroke-miterlimit:3.1"
       d="m 564.44138,750.61542 v -8.87885 h 8.87885 8.87885 v 8.87885 8.87886 h -8.87885 -8.87885 z"
       id="path161"
       transform="matrix(0.26458333,0,0,0.26458333,-90.557281,-171.53075)" /><path
       style="fill:#6f4a4a;fill-opacity:1;stroke:#000000;stroke-width:0.0704671;stroke-linecap:square;stroke-linejoin:round;stroke-miterlimit:3.1"
       d="m 564.44138,769.5006 v -8.87885 h 8.87885 8.87885 v 8.87885 8.87886 h -8.87885 -8.87885 z"
       id="path162"
       transform="matrix(0.26458333,0,0,0.26458333,-90.557281,-171.53075)" /><path
       style="fill:#423939;fill-opacity:1;stroke:#000000;stroke-width:0.0704671;stroke-linecap:square;stroke-linejoin:round;stroke-miterlimit:3.1"
       d="m 583.32656,769.5006 v -8.87885 h 8.87885 8.87885 v 8.87885 8.87886 h -8.87885 -8.87885 z"
       id="path163"
       transform="matrix(0.26458333,0,0,0.26458333,-90.557281,-171.53075)" /><path
       style="fill:#5f344b;fill-opacity:1;stroke:#000000;stroke-width:0.0704671;stroke-linecap:square;stroke-linejoin:round;stroke-miterlimit:3.1"
       d="m 583.32656,750.61542 v -8.87885 h 8.87885 8.87885 v 8.87885 8.87886 h -8.87885 -8.87885 z"
       id="path164"
       transform="matrix(0.26458333,0,0,0.26458333,-90.557281,-171.53075)" /><path
       style="fill:#a24f71;fill-opacity:1;stroke:#000000;stroke-width:0.0704671;stroke-linecap:square;stroke-linejoin:round;stroke-miterlimit:3.1"
       d="m 583.32656,731.73025 v -8.87886 h 8.87885 8.87885 v 8.87886 8.87885 h -8.87885 -8.87885 z"
       id="path165"
       transform="matrix(0.26458333,0,0,0.26458333,-90.557281,-171.53075)" /><path
       style="fill:#93553a;fill-opacity:1;stroke:#000000;stroke-width:0.0704671;stroke-linecap:square;stroke-linejoin:round;stroke-miterlimit:3.1"
       d="m 583.32656,712.70413 v -8.87885 h 8.87885 8.87885 v 8.87885 8.87885 h -8.87885 -8.87885 z"
       id="path166"
       transform="matrix(0.26458333,0,0,0.26458333,-90.557281,-171.53075)" /><path
       style="fill:#651f22;fill-opacity:1;stroke:#000000;stroke-width:0.0704671;stroke-linecap:square;stroke-linejoin:round;stroke-miterlimit:3.1"
       d="m 583.32656,693.81895 v -8.87885 h 8.87885 8.87885 v 8.87885 8.87885 h -8.87885 -8.87885 z"
       id="path167"
       transform="matrix(0.26458333,0,0,0.26458333,-90.557281,-171.53075)" /><path
       style="fill:#b69a6d;fill-opacity:1;stroke:#000000;stroke-width:0.0704671;stroke-linecap:square;stroke-linejoin:round;stroke-miterlimit:3.1"
       d="m 583.32656,674.93377 v -8.87885 h 8.87885 8.87885 v 8.87885 8.87886 h -8.87885 -8.87885 z"
       id="path168"
       transform="matrix(0.26458333,0,0,0.26458333,-90.557281,-171.53075)" /><path
       style="fill:#918169;fill-opacity:1;stroke:#000000;stroke-width:0.0704671;stroke-linecap:square;stroke-linejoin:round;stroke-miterlimit:3.1"
       d="m 583.32656,656.04859 v -8.87885 h 8.87885 8.87885 v 8.87885 8.87886 h -8.87885 -8.87885 z"
       id="path169"
       transform="matrix(0.26458333,0,0,0.26458333,-90.557281,-171.53075)" /><path
       style="fill:#5c413c;fill-opacity:1;stroke:#000000;stroke-width:0.0704671;stroke-linecap:square;stroke-linejoin:round;stroke-miterlimit:3.1"
       d="m 583.32656,637.16341 v -8.87885 h 8.87885 8.87885 v 8.87885 8.87886 h -8.87885 -8.87885 z"
       id="path170"
       transform="matrix(0.26458333,0,0,0.26458333,-90.557281,-171.53075)" /><path
       style="fill:#764838;fill-opacity:1;stroke:#000000;stroke-width:0.0704671;stroke-linecap:square;stroke-linejoin:round;stroke-miterlimit:3.1"
       d="m 602.21174,637.16341 v -8.87885 h 8.87885 8.87885 v 8.87885 8.87886 h -8.87885 -8.87885 z"
       id="path171"
       transform="matrix(0.26458333,0,0,0.26458333,-90.557281,-171.53075)" /><path
       style="fill:#49423a;fill-opacity:1;stroke:#000000;stroke-width:0.0704671;stroke-linecap:square;stroke-linejoin:round;stroke-miterlimit:3.1"
       d="m 602.21174,656.04859 v -8.87885 h 8.87885 8.87885 v 8.87885 8.87886 h -8.87885 -8.87885 z"
       id="path172"
       transform="matrix(0.26458333,0,0,0.26458333,-90.557281,-171.53075)" /><path
       style="fill:#6f6254;fill-opacity:1;stroke:#000000;stroke-width:0.0704671;stroke-linecap:square;stroke-linejoin:round;stroke-miterlimit:3.1"
       d="m 602.21174,674.93377 v -8.87885 h 8.87885 8.87885 v 8.87885 8.87886 h -8.87885 -8.87885 z"
       id="path173"
       transform="matrix(0.26458333,0,0,0.26458333,-90.557281,-171.53075)" /><path
       style="fill:#86775c;fill-opacity:1;stroke:#000000;stroke-width:0.0704671;stroke-linecap:square;stroke-linejoin:round;stroke-miterlimit:3.1"
       d="m 602.21174,693.81895 v -8.87885 h 8.87885 8.87885 v 8.87885 8.87885 h -8.87885 -8.87885 z"
       id="path174"
       transform="matrix(0.26458333,0,0,0.26458333,-90.557281,-171.53075)" /><path
       style="fill:#403638;fill-opacity:1;stroke:#000000;stroke-width:0.0704671;stroke-linecap:square;stroke-linejoin:round;stroke-miterlimit:3.1"
       d="m 602.21174,712.70413 v -8.87885 h 8.87885 8.87885 v 8.87885 8.87885 h -8.87885 -8.87885 z"
       id="path175"
       transform="matrix(0.26458333,0,0,0.26458333,-90.557281,-171.53075)" /><path
       style="fill:#a47379;fill-opacity:1;stroke:#000000;stroke-width:0.0704671;stroke-linecap:square;stroke-linejoin:round;stroke-miterlimit:3.1"
       d="m 602.21174,731.73025 v -8.87886 h 8.87885 8.87885 v 8.87886 8.87885 h -8.87885 -8.87885 z"
       id="path176"
       transform="matrix(0.26458333,0,0,0.26458333,-90.557281,-171.53075)" /><path
       style="fill:#9f433b;fill-opacity:1;stroke:#000000;stroke-width:0.0704671;stroke-linecap:square;stroke-linejoin:round;stroke-miterlimit:3.1"
       d="m 602.21174,750.61542 v -8.87885 h 8.87885 8.87885 v 8.87885 8.87886 h -8.87885 -8.87885 z"
       id="path177"
       transform="matrix(0.26458333,0,0,0.26458333,-90.557281,-171.53075)" /><path
       style="fill:#867470;fill-opacity:1;stroke:#000000;stroke-width:0.0704671;stroke-linecap:square;stroke-linejoin:round;stroke-miterlimit:3.1"
       d="m 602.21174,769.5006 v -8.87885 h 8.87885 8.87885 v 8.87885 8.87886 h -8.87885 -8.87885 z"
       id="path178"
       transform="matrix(0.26458333,0,0,0.26458333,-90.557281,-171.53075)" /></g></svg>
